<svg width="448" height="376" viewBox="0 0 448 376" fill="none" xmlns="http://www.w3.org/2000/svg">
<path d="M307.498 302.144C304.168 299.009 301.368 295.939 298.111 293.389C288.746 286.085 284.319 275.757 278.728 266.134C276.216 261.817 276.934 256.965 277.042 252.292C277.063 251.482 278.253 250.695 278.946 249.846L282.089 255.695V247.041C283.931 246.407 285.68 245.553 287.292 244.501C287.977 243.967 288.8 243.615 289.678 243.481C290.555 243.347 291.455 243.435 292.284 243.737C294.088 244.446 295.771 245.402 297.279 246.575C296.648 250.911 297.799 255.311 300.498 258.875C302.603 258.339 305.087 259.747 307.196 257.712C307.578 257.499 308.011 257.378 308.455 257.359C308.899 257.34 309.341 257.425 309.742 257.605C314.903 260.543 321.241 262.081 323.853 268.083C324.321 269.167 324.841 270.565 325.785 271.045C327.207 271.77 325.931 274.032 328.373 274.121C330.381 274.192 329.098 276.122 329.458 277.17C329.989 278.446 330.422 279.755 330.756 281.089C330.883 282.345 330.899 283.608 330.804 284.867C325.848 289.078 322.058 294.364 319.763 300.266L307.501 302.147" fill="#2FACB2"/>
<path d="M139.451 56.9093C136.582 58.7444 133.817 60.5861 130.935 62.2416C130.657 62.4016 129.655 61.4481 128.573 60.7363C128.049 61.7703 127.444 62.7658 126.762 63.7142C125.872 64.6626 124.931 65.5671 123.942 66.4244C122.048 68.2628 120.22 70.3101 117.421 67.515C117.206 67.3028 116.553 67.515 116.113 67.4693C112.967 67.1428 109.966 67.8873 106.803 65.5101C103.939 63.8228 101.203 61.9517 98.613 59.9101C96.2171 57.8281 94.1496 55.4344 92.4733 52.8016C89.5839 48.8002 88.2026 44.0026 88.5502 39.1754C89.0309 37.7248 89.6947 36.3336 90.5274 35.0318L94.6899 38.2546C95.786 34.8326 95.5605 30.8554 98.9287 27.8383L103.133 30.7869V26.1763C107.331 25.078 111.651 24.4435 116.005 24.2856C118.358 24.3247 120.616 25.1605 122.367 26.6399C124.685 28.2667 126.795 30.1404 128.656 32.2236C130.182 34.3852 132.267 36.191 133.859 38.4277C136.009 42.2219 137.825 46.1752 139.291 50.2481C139.808 52.4372 139.862 54.7006 139.451 56.9093Z" fill="#2FACB2"/>
<path d="M-15.3632 246.581L-24.5797 237.905C-24.7131 235.553 -24.6737 233.196 -24.4617 230.849C-24.3299 229.944 -22.9389 229.027 -21.9053 228.494C-21.5133 228.289 -20.5178 229.148 -19.7685 229.53C-18.7903 227.708 -18.218 225.242 -14.9123 225.843C-14.2772 226.012 -13.5981 225.951 -13.0079 225.673C-12.3251 224.943 -11.4634 224.381 -10.4975 224.035C-9.5316 223.689 -8.49064 223.57 -7.46486 223.688C-3.55692 224.246 0.169094 225.62 3.4409 227.708C9.57253 232.257 14.4506 238.129 17.6628 244.828C19.4869 248.982 20.8808 253.293 21.8253 257.699C22.0575 258.833 21.945 260.005 21.5007 261.082C21.0564 262.158 20.2984 263.094 19.3139 263.783C15.4983 266.303 11.811 269.027 7.90517 271.423C6.49503 272.295 4.83183 272.732 3.14605 272.674C-1.53162 272.629 -6.04744 271.056 -9.62968 268.224C-13.2119 265.392 -15.6382 261.477 -16.494 257.148C-17.1874 255.726 -17.6022 254.198 -17.7185 252.638C-17.1686 250.544 -16.3777 248.513 -15.3597 246.581" fill="#2FACB2"/>
<path d="M409.954 180.093C410.131 178.924 410.301 177.755 410.506 176.465C410.995 176.792 411.428 176.932 411.546 177.19C413.532 181.064 415.167 185.088 416.434 189.22C417.072 191.891 417.884 194.444 415.137 196.531C413.267 197.948 415.164 202.02 410.957 201.791C408.973 204.792 405.795 204.491 402.753 204.286C402.221 206.229 401.55 208.136 400.745 209.994C399.735 211.953 396.509 212.514 393.051 211.584C392.26 211.371 391.497 210.65 390.775 210.709C385.173 211.169 385.184 211.208 382.825 207.048C381.532 205.037 380.36 202.96 379.315 200.825C378.839 199.587 378.085 198.46 377.105 197.521C376.125 196.582 374.942 195.852 373.636 195.381C371.625 194.586 369.863 193.319 368.518 191.703C367.173 190.086 366.289 188.172 365.95 186.144C365.701 184.262 366.009 182.352 366.838 180.624C367.667 178.896 368.986 177.416 370.65 176.348L376.571 183.633C376.571 180.57 376.536 178.509 376.571 176.449C376.606 174.389 376.852 174.816 380.293 173.36C382.756 172.318 386.318 173.582 387.733 170.372L395.018 170.111C399.503 169.945 403.482 170.405 405.57 175.097C406.771 176.951 408.249 178.634 409.958 180.093" fill="#2FACB2"/>
<path d="M427.225 396.08C419.556 393.105 416.257 387.59 412.979 382.202C410.071 377.479 407.521 372.569 405.348 367.508C403.197 362.454 399.475 357.67 401.137 351.312C405.993 354.496 405.587 360.579 410.245 364.648C409.392 358.228 405.844 353.242 404.075 346.473L408.497 348.759C408.698 347.639 408.927 346.473 409.142 345.33L415.539 344.188C416.167 345.131 416.989 346.525 417.967 347.815C421.783 352.841 421.783 352.818 428.72 355.133C429.487 355.425 430.217 355.795 430.898 356.236C436.429 359.103 440.995 363.371 444.08 368.556C445.46 371.042 446.313 373.757 446.591 376.55C446.681 377.136 446.974 377.677 447.424 378.091C447.637 378.264 447.799 378.487 447.894 378.737C447.989 378.987 448.012 379.256 447.963 379.517C447.914 379.778 447.793 380.023 447.613 380.227C447.432 380.431 447.198 380.587 446.934 380.681C443.91 382.287 442.602 385.445 439.917 387.335C439.428 387.734 439.036 388.227 438.767 388.781C438.499 389.334 438.36 389.936 438.36 390.545C437.874 391.632 437.067 392.566 436.036 393.236C435.005 393.906 433.791 394.284 432.539 394.326C431.45 394.088 430.746 392.207 429.265 393.595C428.521 394.38 427.833 395.21 427.204 396.08" fill="#2FACB2"/>
<path d="M209.256 248.433L205.149 249.086L206.8 251.995L196.848 261.366C196.227 261.312 195.603 261.312 194.982 261.366C187.434 262.673 182.404 258.65 178.214 253.784C174.894 249.954 172.114 245.736 169.941 241.236C168.194 238.421 167.618 235.095 168.324 231.904L174.704 245.066L175.793 244.739C175.706 243.924 175.531 243.119 175.272 242.336C173.909 239.277 172.355 236.295 171.068 233.21C170.499 231.845 169.275 230.147 172.39 229.513C173.351 229.317 173.913 227.368 174.645 226.215C175.286 225.203 175.907 224.178 176.417 223.361C179.563 223.09 179.594 225.68 181.554 226.748L180.042 221.344L183.736 218.584C184.586 219.378 185.71 220.645 186.754 218.31C187.888 215.789 189.564 214.806 192.259 216.462C192.505 216.612 193.015 216.73 193.178 216.602C196.321 214.166 198.17 216.602 199.623 218.457C202.71 223.097 205.124 228.105 206.803 233.347C207.292 234.542 208.357 237.344 204.778 237.481C204.576 237.481 204.431 238.535 204.243 239.113C204.989 239.283 206.134 239.825 206.418 239.557C206.615 239.276 206.907 239.066 207.248 238.961C207.588 238.856 207.956 238.863 208.291 238.981C208.627 239.098 208.91 239.319 209.094 239.608C209.279 239.897 209.354 240.236 209.308 240.57C208.101 243.237 210.896 245.817 209.249 248.449" fill="#2FACB2"/>
<path d="M184.895 113.232L187.67 115.845C187.888 114.052 188.072 112.579 188.273 110.963C191.048 110.418 193.896 109.729 196.796 109.33C198.569 109.082 200.372 109.082 202.145 109.33C203.477 109.526 202.433 111.864 204.92 112.067C206.526 112.201 207.761 114.767 208.902 116.557C209.832 118.01 208.441 121.151 211.965 120.965C212.085 123.02 212.208 125.077 212.333 127.136C212.352 127.337 212.382 127.536 212.423 127.734L222.423 137.148C223.518 137.077 224.618 137.087 225.711 137.177C227.383 137.432 229.18 138.989 228.323 139.956C226.419 142.104 229.832 143.59 228.48 145.343C224.967 146.688 221.107 147.013 217.397 146.277C218.458 148.436 219.381 150.317 220.54 152.684C219.863 153.294 218.972 154.783 218.094 154.78C212.544 154.741 206.713 156.063 201.77 152.361C200.325 151.492 198.984 150.478 197.771 149.337C195.395 146.535 193.261 143.544 191.097 140.589C190.028 139.133 189.116 137.572 188.089 136.083C186.511 133.797 186.983 130.48 184.069 128.834C184.068 126.238 183.27 123.698 181.769 121.52C181.375 120.786 181.143 119.985 181.087 119.165C181.031 118.344 181.153 117.522 181.445 116.747C181.737 115.972 182.193 115.261 182.785 114.657C183.377 114.053 184.094 113.568 184.891 113.232" fill="#2FACB2"/>
<path d="M-22.821 19.3159H-16.6119C-14.2115 19.3159 -11.6134 18.9404 -11.0619 22.209C-10.928 22.4519 -10.7301 22.6584 -10.4872 22.8087C-10.2442 22.9591 -9.9644 23.0483 -9.67441 23.0678C-6.83004 22.6694 -6.09467 25.2 -4.35335 26.3135C0.36068 29.3306 1.05443 34.3069 2.24421 38.9045C2.91715 41.5167 2.01874 43.4106 -1.15517 45.1967C-4.7141 47.2016 -9.16798 48.4621 -11.6134 52.0898C-13.771 52.129 -15.5366 55.3061 -18.0549 52.7625C-18.5649 52.4038 -19.1965 52.2331 -19.8309 52.2825C-28.3224 52.4359 -33.6331 47.8449 -38.08 41.7225C-40.7255 38.8907 -42.7507 35.595 -44.0393 32.0245C-44.3925 30.4499 -44.6244 28.8534 -44.7331 27.2474C-44.7712 26.7216 -44.4417 25.8139 -44.0393 25.68C-40.6365 24.5306 -38.1424 21.7878 -34.8367 20.6678C-30.9939 19.3584 -26.8833 18.8959 -22.821 19.3159Z" fill="#2FACB2"/>
<path d="M-33.6122 326.643L-30.4904 331.257C-30.1747 329.05 -30.0533 328.296 -29.9631 327.538C-29.6717 325.027 -29.6787 325.03 -26.3071 324.707C-25.8839 324.665 -25.2352 324.707 -25.0861 324.495C-24.4686 323.483 -23.4948 322.706 -22.3332 322.298C-21.1716 321.89 -19.8951 321.877 -18.7244 322.261C-15.896 322.914 -13.2328 324.087 -10.8885 325.713C-3.02335 332.491 2.85123 341.064 6.16737 350.604C6.52247 352.404 6.55296 354.248 6.25756 356.057L3.68722 355.786C3.85719 358.072 3.3126 359.744 0.489033 360.279C-0.0175438 360.453 -0.471706 360.74 -0.83429 361.115C-1.19688 361.49 -1.457 361.943 -1.59222 362.435C-1.87666 365.171 -4.86325 363.839 -5.90388 365.262C-7.56888 362.771 -10.4132 365.788 -12.3002 364.005C-14.0936 362.301 -16.546 360.985 -17.7288 358.983C-20.4632 354.621 -22.6903 349.995 -24.3715 345.184C-24.624 344.109 -25.1036 343.092 -25.7817 342.194C-26.4598 341.297 -27.3227 340.537 -28.3189 339.959C-31.5459 338.31 -34.1358 335.742 -35.7178 332.622C-37.0463 329.906 -37.1053 329.932 -33.6122 326.643Z" fill="#2FACB2"/>
<path d="M92.5288 252.952C92.4408 252.191 92.4595 251.423 92.5843 250.666C92.73 250.141 93.6839 249.785 93.7706 249.278C93.8573 248.772 93.1844 248.103 93.1844 247.492C93.1844 246.96 93.9753 246.307 93.8192 245.915C93.4747 245.168 92.9325 244.516 92.2444 244.021C91.6003 243.724 90.9071 243.531 90.1943 243.453C90.6141 244.825 90.9505 245.932 91.2939 247.045C88.9005 245.68 86.2469 244.593 87.4228 241.305L90.5655 242.575C90.9505 238.634 87.0551 240.678 85.5532 238.807C87.7489 239.052 89.2127 237.628 91.4223 237.902C92.4629 238.029 93.7776 235.982 95.3489 234.581L102.828 240.328L103.549 236.188L113.442 234.389C115.176 236.456 116.508 238.343 118.146 239.966C119.568 241.37 121.521 242.304 122.891 243.744C126.399 247.928 128.863 252.801 130.099 258.003C130.668 259.819 131.296 262.689 127.612 263.176C127.612 266.506 123.897 267.006 122.214 269.115C121.009 270.401 119.371 271.258 117.575 271.543C115.779 271.828 113.933 271.525 112.346 270.683C106.817 268.156 102.053 264.359 98.4951 259.643C96.5664 257.481 94.4019 255.44 92.5288 252.955" fill="#2FACB2"/>
<path d="M203.449 335.117L206.786 336.185C207.029 330.856 201.18 329.36 200.365 324.456C201.36 324.762 202.315 325.173 203.213 325.68C204.427 326.69 205.585 327.758 206.682 328.88C206.544 326.958 205.683 325.145 204.254 323.767C207.813 319.724 207.813 319.724 211.975 319.724C213.994 322.482 216.421 324.954 219.183 327.065C222.434 328.936 223.391 332.126 225.774 334.415C227.967 336.806 229.768 339.492 231.116 342.385C232.061 343.929 232.503 345.701 232.385 347.479C232.038 349.517 231.116 352.511 229.586 353.089C227.068 354.043 227.633 355.718 226.839 357.161C226.395 358.23 225.68 359.181 224.757 359.931C223.834 360.681 222.73 361.207 221.542 361.465C219.95 361.709 218.056 362.852 216.887 362.359C213.956 361.233 211.283 359.587 209.013 357.51C205.087 353.478 201.442 349.211 198.1 344.736C197.264 343.626 197.66 341.677 197.406 339.479L199.939 341.399C199.446 338.167 202.447 337.06 203.449 335.114" fill="#2FACB2"/>
<path d="M121.819 143.737C124.133 143.881 125.732 142.758 127.851 144.191L125.145 145.07C125.94 147.61 126.824 150.131 127.473 152.707C127.639 153.36 127.272 154.666 126.779 154.862C124.098 155.933 123.265 158.673 121.163 160.178C120.093 160.791 118.874 161.139 117.622 161.187C117.011 161.249 116.293 160.384 115.683 160.443C114.882 160.681 114.134 161.055 113.477 161.546C112.321 157.703 112.38 157.55 107.833 156.09C105.11 155.215 104.545 152.697 102.63 151.114L101.315 153.755C100.621 153.079 99.4698 152.472 99.4698 151.868C99.5044 144.319 99.4975 144.149 95.838 139.626C93.7741 143.039 97.7284 145.014 97.9435 148.351C96.9653 148.208 95.5154 148.315 95.3315 147.92C93.618 143.986 90.9991 140.26 93.6873 135.548C94.5198 134.082 94.6725 133.315 96.5456 133.282C97.7851 133.146 98.966 132.709 99.9727 132.015C102.637 130.428 105.207 128.701 108.058 126.872L109.182 128.43C111.43 129.906 113.775 125.932 114.15 130.062C114.257 131.238 117.049 128.43 117.049 131.512C117.049 132.701 119.37 133.892 120.539 134.993L119.314 137.974L120.31 138.627L122.218 135.215C123.418 137.138 124.119 138.252 125.034 139.711L121.819 143.737Z" fill="#2FACB2"/>
<path d="M68.9413 320.681L74.5086 322.215C75.0851 321.305 75.3252 320.241 75.1916 319.189C75.0579 318.137 74.558 317.156 73.7698 316.4C76.1285 314.382 77.6999 317.425 80.0135 317.095C80.2251 315.985 80.4575 314.826 80.6899 313.693C82.5006 311.868 84.1344 315.234 86.3232 313.647C88.512 312.06 89.1259 315.531 91.0303 315.933C92.1836 316.365 93.1706 317.117 93.8608 318.088C96.3895 321.007 96.7815 325.135 100.188 327.682C101.003 328.289 100.569 330.382 100.75 332.253C96.9757 330.509 96.7468 336.145 93.1185 334.81C92.0015 336.514 93.056 339.6 88.956 339.969L86.8782 336.645L85.2548 339.838C82.9654 340.351 81.9144 338.49 81.1617 337.308C78.7477 333.459 75.3308 330.254 71.2341 327.995C70.5505 327.679 69.944 327.233 69.453 326.685C68.962 326.137 68.5972 325.499 68.3817 324.812C68.1661 324.124 68.1046 323.402 68.2009 322.691C68.2973 321.98 68.5494 321.295 68.9413 320.681Z" fill="#2FACB2"/>
<path d="M36.1963 152.348L27.6528 158.653H21.9987C19.7961 155.655 19.0815 151.714 15.8348 149.239C15.4983 145.072 12.4319 142.48 9.78525 139.57C8.92154 138.643 9.0915 136.883 8.74463 135.159C9.71588 134.904 10.6802 134.924 11.1728 134.48C16.3481 129.931 21.2321 132.488 25.3322 135.603C28.8361 138.38 31.862 141.652 34.3024 145.301C35.3611 147.53 36.0018 149.916 36.1963 152.351" fill="#2FACB2"/>
</svg>
